<svg width="195" height="227" viewBox="0 0 395 427" fill="none" xmlns="http://www.w3.org/2000/svg">
<path d="M380 339.16L372.12 177.37M177.68 425.86C177.535 425.859 177.393 425.817 177.27 425.74L54.64 344.44C54.5696 344.388 54.5058 344.328 54.45 344.26L0.640033 271.18C0.529714 271.03 0.479735 270.845 0.500033 270.66L16.61 113.73C16.6394 113.517 16.7505 113.323 16.92 113.19L129.6 32.76C129.672 32.7123 129.749 32.672 129.83 32.64L247 0.520001C247.096 0.495144 247.195 0.489416 247.293 0.503144C247.391 0.516873 247.485 0.549789 247.57 0.600001L383.57 78.6C383.672 78.6569 383.759 78.7375 383.823 78.835C383.888 78.9324 383.928 79.0439 383.94 79.16L394.24 171.48L392.67 313.68C392.672 313.791 392.648 313.9 392.6 314L380.27 339.53C380.206 339.678 380.088 339.796 379.94 339.86L227.47 419.43C227.389 419.473 227.301 419.5 227.21 419.51L177.78 425.86H177.68ZM227.21 419.51L108 311.28L1.28003 271L227.21 419.51ZM108 311.28L200.19 150.55L129.6 32.76L108 311.28ZM200.19 150.55L372.08 177.36L384 79.16L200.19 150.55Z" stroke="#FFFFFF" stroke-miterlimit="10"/>
</svg>
